<svg width="76" height="75" viewBox="0 0 76 75" fill="none" xmlns="http://www.w3.org/2000/svg">
<g filter="url(#filter0_d_11_103)">
<path fill-rule="evenodd" clip-rule="evenodd" d="M29.7803 65.9274C29.7327 65.3933 29.6877 64.8895 29.647 64.4334C29.6214 64.1466 29.5974 63.8786 29.5756 63.634L29.5557 63.4177C29.2144 59.703 29.2087 59.6414 29.7988 59.242C30.439 58.7614 30.4818 57.8614 29.824 57.4852C29.1921 57.1134 26.8945 57.1317 26.1894 57.5214C25.6313 57.8288 25.5794 57.9803 25.7658 58.6249C25.8611 59.0143 26.1209 59.3777 26.3286 59.4122C26.77 59.4856 26.796 59.65 26.8752 62.7048C26.8867 63.1753 26.922 64.0186 26.9727 65.0746C27.8883 65.3979 28.8247 65.6829 29.7803 65.9274ZM22.3342 63.0209C22.2768 62.5662 22.2301 62.202 22.1974 61.9539C21.9543 59.8857 21.9671 59.6477 22.3738 59.4485C22.668 59.284 22.8365 58.9118 22.8623 58.4358C22.8819 58.1354 22.894 57.9489 22.8132 57.8214C22.681 57.6129 22.2999 57.5621 21.2955 57.4283C19.2617 57.1435 18.5046 57.3645 18.4531 58.3165C18.436 58.7405 18.6309 59.1731 18.9468 59.3591C19.2589 59.5747 19.4106 59.9991 19.5391 61.3294C20.4381 61.9366 21.3706 62.5016 22.3342 63.0209ZM14.821 57.4603C7.45205 50.1789 3.61603 39.5496 5.444 28.5533C8.43267 10.5746 25.4301 -1.5772 43.4087 1.41147C61.3874 4.40014 73.5392 21.3975 70.5506 39.3762C69.4909 45.7506 66.6703 51.3925 62.6692 55.8868L51.5171 52.0198C45.1858 49.8201 39.7114 47.9228 39.3565 47.8105C38.9021 47.6549 35.5752 48.7294 26.8057 51.8874C20.2514 54.2397 14.8652 56.306 14.8609 56.492C14.8394 56.6216 14.8312 56.9974 14.822 57.4142C14.8217 57.4295 14.8214 57.4449 14.821 57.4603ZM58.4303 59.8782C58.4701 59.5928 58.5149 59.4265 58.5558 59.4333C58.6856 59.4549 58.9668 59.2081 59.183 58.8705C59.5376 58.3425 59.5418 58.1564 59.1695 57.6676C58.7799 57.1226 58.6024 57.0664 57.0793 57.08C55.9284 57.1021 55.2924 57.2366 55.0545 57.5439C54.674 58.0676 54.8517 58.9243 55.436 59.2615C55.6784 59.4085 55.7263 60.0835 55.6143 61.399C55.6029 61.5262 55.5882 61.6939 55.5707 61.8967C56.5587 61.2747 57.5133 60.6008 58.4303 59.8782ZM51.025 64.2887C51.0288 63.985 51.0315 63.6999 51.0329 63.4389C51.0745 59.497 51.0789 59.471 51.6844 59.0381C52.2295 58.6484 52.2467 58.5446 51.9912 57.9952C51.7357 57.4457 51.489 57.3247 50.2817 57.204C48.6028 57.0317 47.5818 57.3956 47.5519 58.2177C47.552 58.5379 47.7772 58.9489 48.0412 59.1262C48.4956 59.4418 48.5391 59.8226 48.2722 63.0333C48.2258 63.679 48.1712 64.4939 48.115 65.3827C49.1041 65.0632 50.0751 64.6979 51.025 64.2887ZM44.0248 66.4187C43.9626 64.0941 43.8925 62.1156 43.845 61.4169C43.7534 59.7208 43.7836 59.539 44.2076 59.396C44.7744 59.1968 44.9773 58.1366 44.5271 57.6348C44.1461 57.198 41.8571 57.0042 40.9226 57.3291C40.2131 57.5847 40.14 58.8266 40.8152 59.259C41.248 59.5444 41.3002 60.0333 41.2192 62.9281C41.1867 63.8558 41.1533 65.2836 41.1278 66.8241C42.104 66.7317 43.0705 66.5961 44.0248 66.4187ZM37.0254 66.9543C36.9753 66.2092 36.9245 65.4845 36.8757 64.8208C36.5622 60.1262 36.5533 59.6978 37.0119 59.3471C37.6261 58.8623 37.7253 58.2651 37.2967 57.6336C36.9244 57.1448 35.9811 57.0413 34.1292 57.2671C32.762 57.4667 32.4984 58.4101 33.5373 59.3832C33.9312 59.7422 34.0656 60.2181 34.0227 61.2782C34.007 61.8456 34.0226 64.0541 34.0722 66.7311C35.0615 66.8504 36.0466 66.9243 37.0254 66.9543ZM38.5379 4.74458C38.417 5.31147 38.3526 6.50141 38.3399 7.37979C38.3449 8.9548 38.3406 8.98076 37.4624 9.44844C36.4329 10.0244 35.5982 11.0329 35.4514 11.9157C35.3953 12.2532 35.0191 12.7509 34.5995 13.028C33.5786 13.7121 33.622 13.9328 34.6907 13.9237L35.5691 13.9363L35.6132 15.7579C35.6049 16.7704 35.6443 17.8175 35.6574 18.0599C35.7051 18.4146 35.4499 18.5056 34.4633 18.5017C33.2691 18.4633 33.2388 18.4849 33.2608 19.3157C33.261 19.796 33.6118 20.5747 34.1183 21.2192L34.9798 22.2962L34.7104 29.8555C34.5521 34.0181 34.4411 37.7351 34.4543 38.1375C34.4848 38.7562 34.3594 38.8688 33.7883 38.9339C32.9792 38.9862 32.9316 39.1117 32.9675 42.1059C32.9698 42.4216 32.9754 42.7077 32.9804 42.967C33.0022 44.0974 33.0141 44.7177 32.7113 45.0577C32.3432 45.4711 31.5098 45.4702 29.663 45.4682C29.3092 45.4678 28.9182 45.4674 28.4862 45.4698C26.0847 45.4709 23.891 45.5064 23.5664 45.5325L23.0039 45.5457L23.0354 48.4058C23.0447 49.9549 23.0929 51.2702 23.1362 51.3308C23.1578 51.3611 26.6968 50.1351 31.0101 48.5842L38.8407 45.777L46.3058 48.3787C50.417 49.8092 53.8618 50.9155 53.9526 50.8505C54.104 50.7423 54.1754 45.6581 54.0282 45.4201C54.0109 45.3639 51.9556 45.3691 49.4719 45.3831C46.9839 45.4231 44.8248 45.411 44.669 45.3851C44.5132 45.3592 44.4001 43.953 44.4383 42.1184L44.4672 38.8948L43.7489 38.8821C43.1648 38.865 42.996 38.7569 42.9612 38.3243C42.9459 38.1345 42.8873 36.7796 42.8028 34.8273C42.7428 33.4401 42.6697 31.7513 42.5899 29.9647L42.2534 22.198L43.1356 21.0639C43.7454 20.2848 43.9962 19.7395 43.9483 19.2246C43.8961 18.5756 43.8009 18.5064 42.8706 18.4852C42.8056 18.4833 42.7445 18.482 42.687 18.4808C42.3648 18.4742 42.1564 18.4699 42.021 18.3683C41.7728 18.1822 41.7697 17.6694 41.7608 16.2172C41.7599 16.0601 41.7588 15.892 41.7574 15.7121C41.7524 13.977 41.9297 13.7129 43.0721 13.9029C43.851 14.0323 43.8681 13.6083 43.0977 13.2668C42.7515 13.1025 42.2623 12.5142 42.0154 11.9129C41.4654 10.5674 41.0844 10.1306 39.9332 9.51231C39.0503 9.04537 39.0329 8.98912 38.9584 6.70885C38.849 3.83579 38.7796 3.45072 38.5379 4.74458ZM39.4899 25.5006C39.5031 26.0631 39.4645 26.9372 39.3825 27.4305C39.2747 28.2397 39.1795 28.3306 38.5694 28.3092C37.8035 28.2619 37.7472 28.1192 37.8155 25.7826C37.8193 24.6359 37.8885 24.5407 38.451 24.5275C38.7972 24.5317 39.1736 24.5142 39.2818 24.5055C39.3856 24.5228 39.4724 24.9641 39.4899 25.5006ZM42.7895 41.6042C42.8546 42.1753 42.8291 43.2917 42.7299 44.0489C42.5661 45.3557 42.5271 45.4293 41.8651 45.3993C41.1771 45.365 41.1598 45.3087 41.1849 43.2318C41.2055 40.8606 41.4043 40.3067 42.1572 40.4318C42.5467 40.4966 42.7113 40.7907 42.7895 41.6042ZM39.6573 42.9512C39.6843 45.357 39.5892 45.608 38.5247 45.431C38.0314 45.349 37.9664 45.0981 37.9872 43.2072C38.0165 40.7841 38.2153 40.2301 39.0246 40.4981C39.5309 40.6623 39.6175 40.9435 39.6573 42.9512ZM36.4594 42.2862C36.5646 45.3453 36.5127 45.4968 35.591 45.4236L34.7732 45.3677L34.8285 43.109C34.8621 40.6599 35.0393 40.2358 35.8486 40.5037C36.3073 40.6333 36.4113 40.9708 36.4594 42.2862Z" fill="#E25C45"/>
</g>
<defs>
<filter id="filter0_d_11_103" x="0.992188" y="0.959625" width="74.0103" height="73.9947" filterUnits="userSpaceOnUse" color-interpolation-filters="sRGB">
<feFlood flood-opacity="0" result="BackgroundImageFix"/>
<feColorMatrix in="SourceAlpha" type="matrix" values="0 0 0 0 0 0 0 0 0 0 0 0 0 0 0 0 0 0 127 0" result="hardAlpha"/>
<feOffset dy="4"/>
<feGaussianBlur stdDeviation="2"/>
<feComposite in2="hardAlpha" operator="out"/>
<feColorMatrix type="matrix" values="0 0 0 0 0 0 0 0 0 0 0 0 0 0 0 0 0 0 0.25 0"/>
<feBlend mode="normal" in2="BackgroundImageFix" result="effect1_dropShadow_11_103"/>
<feBlend mode="normal" in="SourceGraphic" in2="effect1_dropShadow_11_103" result="shape"/>
</filter>
</defs>
</svg>
