<svg width="15" height="17" viewBox="0 0 15 17" fill="none" xmlns="http://www.w3.org/2000/svg">
<path d="M7.6764 0.781126L7.59964 0.801695C7.33604 0.875016 7.10426 1.0338 6.94069 1.25312C6.77711 1.47244 6.69101 1.73988 6.69589 2.01344C6.69443 2.28144 6.60495 2.54154 6.44122 2.75371C6.27749 2.96589 6.04858 3.11839 5.78971 3.18776C5.53083 3.25712 5.25634 3.23951 5.00846 3.13762C4.76058 3.03574 4.55304 2.85522 4.41777 2.62386C4.28522 2.38451 4.07693 2.19596 3.82561 2.08781C3.57429 1.97966 3.29417 1.95803 3.02923 2.02633L2.95246 2.0469C2.16996 2.25758 1.50296 2.77002 1.09778 3.47182C0.692597 4.17362 0.58231 5.00747 0.79111 5.79048L3.32266 15.2384C3.44855 15.7082 3.75592 16.1088 4.17716 16.352C4.59839 16.5952 5.09898 16.6611 5.56881 16.5352L6.82656 16.1982C7.09015 16.1248 7.32193 15.9661 7.48551 15.7467C7.64908 15.5274 7.73519 15.26 7.73031 14.9864C7.73177 14.7184 7.82125 14.4583 7.98498 14.2461C8.14871 14.034 8.37762 13.8815 8.63649 13.8121C8.89536 13.7427 9.16986 13.7603 9.41774 13.8622C9.66562 13.9641 9.87316 14.1446 10.0084 14.376C10.141 14.6153 10.3493 14.8039 10.6006 14.912C10.8519 15.0202 11.132 15.0418 11.397 14.9735L12.6547 14.6365C13.1245 14.5106 13.5251 14.2032 13.7683 13.782C14.0115 13.3608 14.0774 12.8602 13.9515 12.3904L11.42 2.94248C11.2093 2.15998 10.6969 1.49298 9.99507 1.0878C9.29327 0.682613 8.45941 0.572326 7.6764 0.781126V0.781126ZM12.3383 13.4555L11.0629 13.7574C10.7899 13.2935 10.3715 12.9326 9.87257 12.7307C9.37361 12.5288 8.82197 12.4971 8.3032 12.6407C7.78443 12.7842 7.32752 13.0949 7.00333 13.5246C6.67913 13.9543 6.50576 14.4789 6.51011 15.0172L5.25236 15.3542C5.09575 15.3961 4.92889 15.3742 4.78848 15.2931C4.64807 15.212 4.54561 15.0785 4.50365 14.9219L3.87076 12.5599L5.05175 12.2435C5.20835 12.2015 5.34188 12.0991 5.42294 11.9587C5.50401 11.8183 5.52598 11.6514 5.48402 11.4948C5.44205 11.3382 5.3396 11.2047 5.19918 11.1236C5.05877 11.0425 4.89191 11.0206 4.7353 11.0625L3.55432 11.379L1.9721 5.47403C1.84621 5.00421 1.91211 4.50362 2.15531 4.08238C2.39851 3.66115 2.79908 3.35378 3.26891 3.22789L3.36332 3.24246C3.63507 3.70344 4.0502 4.06283 4.54534 4.26579C5.04048 4.46874 5.58843 4.5041 6.10554 4.36648C6.62821 4.22165 7.08926 3.91005 7.41853 3.47909C7.74781 3.04813 7.92729 2.5214 7.92967 1.97904L7.99285 1.96211C8.46267 1.83622 8.96327 1.90213 9.3845 2.14533C9.80573 2.38853 10.1131 2.7891 10.239 3.25892L11.8212 9.16385L10.6402 9.48029C10.4836 9.52226 10.3501 9.62472 10.269 9.76513C10.188 9.90554 10.166 10.0724 10.208 10.229C10.2499 10.3856 10.3524 10.5191 10.4928 10.6002C10.6332 10.6813 10.8001 10.7032 10.9567 10.6613L12.1377 10.3448L12.7705 12.7068C12.8125 12.8634 12.7905 13.0303 12.7095 13.1707C12.6284 13.3111 12.4949 13.4136 12.3383 13.4555Z" fill="white"/>
</svg>
